# xmcd CD database file
#
# Track frame offsets:
#	150
#	31062
#	57329
#	77409
#	118427
#	159317
#	208847
#	236822
#	265499
#	297422
#
# Disc length: 4419 seconds
#
# Revision: 0
# Processed by: cddbd v1.5.1PL0 Copyright (c) Steve Scherf et al.
# Submitted via: CDex 1.51
#
DISCID=9111410a
DTITLE=Joshua Redman - Beyond
DYEAR=2000
DGENRE=Jazz
TTITLE0=Courage (Asymmetric Aria)
TTITLE1=Belonging (Lopsided Lullaby)
TTITLE2=Neverend
TTITLE3=Leap of Faith
TTITLE4=Balance
TTITLE5=Twilight... And Beyond
TTITLE6=Stoic Revolutions
TTITLE7=Supended Emanations
TTITLE8=Last Rites of Rock 'N' Roll
TTITLE9=Life?
EXTD=YEAR: 2000
EXTT0=
EXTT1=
EXTT2=
EXTT3=
EXTT4=
EXTT5=
EXTT6=
EXTT7=
EXTT8=
EXTT9=
PLAYORDER=
